<svg aria-hidden="true" style="position: absolute; width: 0; height: 0; overflow: hidden;" version="1.1" xmlns="http://www.w3.org/2000/svg" xmlns:xlink="http://www.w3.org/1999/xlink">
<defs>
    <symbol id="facebook" viewBox="0 0 16 32">
        <path d="M14.88 0.246c0 1.822 0 5.071 0 5.071s-3.742-0.369-4.677 1.058c-0.505 0.788-0.209 3.077-0.246 4.726 1.625 0 3.323 0 4.948 0-0.418 1.92-0.714 3.225-1.022 4.898-1.415 0-3.963 0-3.963 0v15.754c0 0-4.665 0-6.868 0 0-4.862 0-10.523 0-15.692-1.071 0-1.858 0-2.917 0 0-1.822 0-3.138 0-4.96 1.034 0 1.846 0 2.88 0 0.16-3.631 0.209-7.225 2.006-9.046 2.031-2.055 3.963-1.809 9.858-1.809z"></path>
    </symbol>

    <symbol id="instagram" viewBox="0 0 32 32">
        <path d="M27.938 31.754h-23.631c-2.178 0-3.938-1.76-3.938-3.938v-23.631c0-2.178 1.76-3.938 3.938-3.938h23.631c2.178 0 3.938 1.76 3.938 3.938v23.631c0 2.178-1.76 3.938-3.938 3.938zM16.123 9.895c-2.462 0-4.566 1.452-5.538 3.545-0.012 0.025-0.025 0.049-0.025 0.062-0.062 0.135-0.111 0.271-0.16 0.406-0.025 0.062-0.049 0.123-0.074 0.185-0.049 0.135-0.086 0.283-0.123 0.418-0.012 0.062-0.037 0.135-0.049 0.197-0.025 0.148-0.049 0.295-0.074 0.455 0 0.062-0.025 0.123-0.025 0.185-0.025 0.209-0.037 0.431-0.037 0.652 0 3.372 2.732 6.105 6.105 6.105s6.105-2.732 6.105-6.105c0-0.222-0.012-0.443-0.037-0.652 0-0.062-0.025-0.123-0.025-0.185-0.025-0.16-0.049-0.308-0.074-0.455-0.025-0.062-0.037-0.135-0.049-0.197-0.037-0.135-0.074-0.283-0.123-0.418-0.025-0.062-0.049-0.123-0.074-0.185-0.049-0.135-0.098-0.271-0.16-0.406 0-0.012-0.012-0.037-0.025-0.062-0.972-2.092-3.077-3.545-5.538-3.545zM28.332 5.366c0-0.874-0.702-1.575-1.575-1.575h-3.151c-0.874 0-1.575 0.702-1.575 1.575v3.151c0 0.874 0.702 1.575 1.575 1.575h3.151c0.874 0 1.575-0.702 1.575-1.575v-3.151zM28.332 13.44h-2.905c0.222 0.812 0.345 1.674 0.345 2.56 0 5.329-4.32 9.649-9.649 9.649s-9.649-4.32-9.649-9.649c0-0.886 0.123-1.748 0.345-2.56h-2.905v13.194c0 0.874 0.702 1.575 1.575 1.575h21.268c0.874 0 1.575-0.702 1.575-1.575v-13.194z"></path>
    </symbol>

    <symbol id="pinterest" viewBox="0 0 26 32">
        <path d="M11.138 20.738c-0.258 1.034-0.517 2.105-0.788 3.151-0.258 1.046-0.492 2.092-0.874 3.040-0.64 1.588-1.452 3.102-2.523 4.345-0.702 0.812-0.554 0.492-0.763 0.443-0.172-0.037-0.185-0.197-0.209-0.418-0.172-1.255-0.062-2.708 0-4.111 0.074-1.612 0.418-2.942 0.726-4.283 0.603-2.535 1.169-5.022 1.772-7.582 0.037-0.172 0.148-0.455 0.111-0.542-0.271-0.714-0.455-1.354-0.529-2.092-0.086-0.862-0.025-1.662 0.172-2.4 0.332-1.305 1.12-2.449 2.326-2.88 0.775-0.258 1.625-0.135 2.142 0.172 0.529 0.308 0.898 0.812 1.058 1.526 0.185 0.763 0.049 1.662-0.098 2.326-0.32 1.502-0.751 2.634-1.145 4.074-0.197 0.726-0.418 1.465-0.234 2.228 0.16 0.714 0.529 1.206 1.046 1.575 0.517 0.382 1.132 0.591 1.994 0.566 1.514-0.062 2.56-1.022 3.262-1.932 1.12-1.465 1.809-3.434 2.068-5.772 0.074-0.751 0.135-1.625 0.086-2.474-0.111-1.588-0.603-2.855-1.391-3.84-0.751-0.935-1.809-1.686-3.089-2.105s-3.052-0.554-4.615-0.283c-2.855 0.48-4.862 2.105-6.043 4.345-0.628 1.169-1.034 2.523-1.034 4.197 0 1.292 0.32 2.289 0.837 3.077 0.16 0.246 0.394 0.455 0.554 0.738 0.234 0.394-0.025 0.997-0.148 1.428-0.135 0.529-0.148 1.243-0.751 1.255-0.258 0.012-0.578-0.172-0.788-0.295-1.612-0.886-2.585-2.498-2.978-4.603-0.246-1.268-0.246-2.745 0-3.975 0.234-1.194 0.665-2.289 1.145-3.175 1.009-1.858 2.474-3.335 4.258-4.394 1.378-0.812 2.929-1.378 4.812-1.649 0.628-0.098 1.268-0.135 1.969-0.16 2.055-0.098 3.926 0.357 5.329 0.985 1.489 0.665 2.671 1.551 3.668 2.646 1.034 1.132 1.785 2.437 2.265 4.074 0.246 0.849 0.48 1.76 0.48 2.818 0 1.046-0.222 1.982-0.369 2.917-0.591 3.471-2.24 6.326-4.726 7.938-0.603 0.394-1.329 0.763-2.166 0.997-0.812 0.246-1.748 0.418-2.757 0.357-0.972-0.074-1.772-0.332-2.437-0.714s-1.231-0.837-1.625-1.538z"></path>
    </symbol>

    <symbol id="twitter" viewBox="0 0 38 32">
        <path d="M25.469 0.873c2.967-0.058 4.538 1.033 6.036 2.4 1.28-0.116 2.938-0.829 3.913-1.324 0.32-0.175 0.64-0.349 0.96-0.524-0.567 1.513-1.324 2.691-2.487 3.593-0.247 0.204-0.509 0.465-0.829 0.596v0.015c1.658-0.015 3.025-0.756 4.32-1.164 0 0 0 0 0 0.015-0.684 1.076-1.6 2.182-2.589 2.967-0.393 0.32-0.8 0.64-1.193 0.945 0.015 1.76-0.029 3.433-0.349 4.916-1.92 8.567-6.967 14.385-14.967 16.887-2.88 0.887-7.52 1.265-10.807 0.451-1.644-0.407-3.113-0.873-4.495-1.469-0.771-0.335-1.484-0.713-2.167-1.12-0.218-0.131-0.451-0.276-0.669-0.407 0.742 0.015 1.615 0.218 2.444 0.087 0.742-0.116 1.484-0.087 2.182-0.233 1.731-0.378 3.258-0.887 4.582-1.658 0.64-0.378 1.615-0.815 2.065-1.353-0.858 0.015-1.629-0.189-2.269-0.407-2.473-0.873-3.913-2.487-4.844-4.887 0.742 0.073 2.909 0.276 3.404-0.16-0.945-0.044-1.847-0.596-2.487-1.004-1.993-1.236-3.622-3.316-3.607-6.531 0.262 0.116 0.524 0.247 0.785 0.364 0.495 0.218 1.004 0.335 1.6 0.451 0.262 0.058 0.756 0.204 1.047 0.087-0.015 0-0.029 0-0.044 0-0.378-0.436-1.004-0.742-1.396-1.222-1.265-1.585-2.473-4.029-1.716-6.924 0.204-0.742 0.509-1.396 0.829-1.993 0.015 0 0.029 0.015 0.029 0.015 0.16 0.32 0.48 0.538 0.698 0.8 0.655 0.815 1.455 1.542 2.269 2.182 2.793 2.182 5.309 3.52 9.338 4.509 1.018 0.247 2.211 0.451 3.433 0.451-0.349-1.004-0.233-2.618 0.029-3.593 0.684-2.429 2.167-4.189 4.335-5.12 0.509-0.233 1.091-0.393 1.687-0.524 0.32-0.044 0.625-0.073 0.931-0.116z"></path>
    </symbol>

    <symbol id="shopping-card" viewBox="0 0 20 17">
        <path d="M18.73 4.66L18.73 4.66L16.25 10.16L16.25 10.16C16.13 10.43 15.87 10.63 15.55 10.65L15.55 10.65L8.43 11.12L8.84 12.3L16.6 12.3C17.51 12.3 18.25 13.04 18.25 13.95C18.25 14.86 17.51 15.6 16.6 15.6C15.69 15.6 14.95 14.86 14.95 13.95L7.25 13.95C7.25 14.86 6.51 15.6 5.6 15.6C4.69 15.6 3.95 14.86 3.95 13.95C3.95 13.04 4.69 12.3 5.6 12.3L7.09 12.3L3.91 3.22L2.02 3.22C1.57 3.22 1.2 2.86 1.2 2.4C1.2 1.94 1.57 1.57 2.02 1.57L4.5 1.57C4.86 1.57 5.16 1.81 5.28 2.13L5.28 2.13L5.76 3.5L17.97 3.5C18.43 3.5 18.8 3.87 18.8 4.32C18.8 4.45 18.77 4.56 18.73 4.66ZM6.34 5.15L7.86 9.51L14.95 9.03L16.7 5.15L6.34 5.15Z" />
    </symbol>

    <symbol id="search" viewBox="0 0 20 20">
        <path d="M18.32 15.98C18.62 16.28 18.8 16.69 18.8 17.15C18.8 18.06 18.06 18.8 17.15 18.8C16.69 18.8 16.28 18.61 15.98 18.32L15.98 18.32L11.15 13.48C10.17 14.06 9.02 14.4 7.8 14.4C4.15 14.4 1.2 11.44 1.2 7.8C1.2 4.15 4.15 1.2 7.8 1.2C11.45 1.2 14.4 4.15 14.4 7.8C14.4 9.02 14.06 10.16 13.48 11.15L18.32 15.98L18.32 15.98ZM7.8 2.85C5.07 2.85 2.85 5.07 2.85 7.8C2.85 10.53 5.07 12.75 7.8 12.75C10.53 12.75 12.75 10.53 12.75 7.8C12.75 5.07 10.53 2.85 7.8 2.85Z" />
    </symbol>

    <symbol id="icon-creativity_3" viewBox="0 0 32 32">
      <path fill="#95e1d3" style="fill: var(--color1, #95e1d3)" d="M30.968 25.29h-10.323v3.097l2.065 2.065h-13.419l2.065-2.065v-3.097h-9.29c-0.080 0.011-0.173 0.017-0.267 0.017-0.767 0-1.437-0.418-1.792-1.039l-0.005-0.010v-20.645c0-1.14 0.924-2.065 2.065-2.065v0h28.903c0.631 0.361 1.050 1.031 1.050 1.798 0 0.094-0.006 0.187-0.018 0.277l0.001-0.011v20.645c-0.211 0.46-0.572 0.821-1.019 1.027l-0.013 0.005zM29.935 3.613h-27.871v17.548h27.871v-17.548zM13.419 10.839c0.155-0.042 0.333-0.066 0.516-0.066s0.361 0.024 0.531 0.069l-0.014-0.003 1.032 1.032 2.065-3.097c0.396-0.396 0.944-0.641 1.548-0.641 1.209 0 2.19 0.98 2.19 2.19 0 0.605-0.245 1.152-0.641 1.548l-4.129 4.129c-0.38 0.43-0.933 0.699-1.548 0.699s-1.168-0.269-1.546-0.697l-0.002-0.002-2.065-2.065c-0.219-0.323-0.349-0.72-0.349-1.149 0-0.895 0.57-1.658 1.367-1.944l0.014-0.005z"></path>
    </symbol>

    <symbol id="icon-digital_6" viewBox="0 0 32 32">
      <path fill="#95e1d3" style="fill: var(--color1, #95e1d3)" d="M31 32h-29c-0.078 0.011-0.167 0.017-0.258 0.017-0.743 0-1.392-0.405-1.736-1.007l-0.005-0.010v-29c0-1.105 0.895-2 2-2v0h29c0.611 0.35 1.017 0.998 1.017 1.742 0 0.091-0.006 0.181-0.018 0.269l0.001-0.010v29c-0.205 0.446-0.554 0.795-0.988 0.995l-0.012 0.005zM29 3h-26v26h26v-26zM7 5h5c0.416 0.368 0.677 0.904 0.677 1.5s-0.261 1.132-0.675 1.498l-0.002 0.002h-4v4c-0.368 0.416-0.904 0.677-1.5 0.677s-1.132-0.261-1.498-0.675l-0.002-0.002v-7h2zM5 20c0.368-0.416 0.904-0.677 1.5-0.677s1.132 0.261 1.498 0.675l0.002 0.002v5h4c0.416 0.368 0.677 0.904 0.677 1.5s-0.261 1.132-0.675 1.498l-0.002 0.002h-7v-8zM20 5h8v7c-0.368 0.416-0.904 0.677-1.5 0.677s-1.132-0.261-1.498-0.675l-0.002-0.002v-4h-5c-0.416-0.368-0.677-0.904-0.677-1.5s0.261-1.132 0.675-1.498l0.002-0.002zM20 25h5v-5c0.368-0.416 0.904-0.677 1.5-0.677s1.132 0.261 1.498 0.675l0.002 0.002v8h-8c-0.416-0.368-0.677-0.904-0.677-1.5s0.261-1.132 0.675-1.498l0.002-0.002z"></path>
    </symbol>

    <symbol id="icon-html_css_5" viewBox="0 0 32 32">
      <path fill="#95e1d3" style="fill: var(--color1, #95e1d3)" d="M32 16.5c0.051 0.149 0.081 0.321 0.081 0.5 0 0.873-0.708 1.581-1.581 1.581-0.694 0-1.284-0.448-1.497-1.070l-0.003-0.011-13-13-13 13c-0.205 0.446-0.554 0.795-0.988 0.995l-0.012 0.005c-1.105 0-2-0.895-2-2v0c-0.084-0.143-0.134-0.316-0.134-0.5s0.050-0.357 0.137-0.505l-0.003 0.005 15-15c0.15-0.040 0.322-0.064 0.5-0.064s0.35 0.023 0.514 0.067l-0.014-0.003c0.143-0.084 0.316-0.134 0.5-0.134s0.357 0.050 0.505 0.137l-0.005-0.003 6 6v-1c0.368-0.416 0.904-0.677 1.5-0.677s1.132 0.261 1.498 0.675l0.002 0.002v4l6 6c0.084 0.143 0.134 0.316 0.134 0.5s-0.050 0.357-0.137 0.505l0.003-0.005zM29 19.5v10c0.011 0.078 0.017 0.167 0.017 0.258 0 0.743-0.405 1.392-1.007 1.736l-0.010 0.005h-3v-12h-6v12h-14c-1.105 0-2-0.895-2-2v0-10l13-13zM14 19.5h-6v6h6v-6z"></path>
    </symbol>

    <symbol id="icon-photography_1" viewBox="0 0 32 32">
       <path fill="#95e1d3" style="fill: var(--color1, #95e1d3)" d="M31 10.5c-1.662-4.128-4.872-7.338-8.893-8.962l-0.107-0.038c1.152-1.152 2.743-1.864 4.5-1.864 3.515 0 6.364 2.849 6.364 6.364 0 1.757-0.712 3.348-1.864 4.5v0zM31 16.5c0.001 0.060 0.001 0.13 0.001 0.201 0 3.816-1.527 7.276-4.004 9.802l0.002-0.002 2 2c0.369 0.188 0.618 0.565 0.618 1 0 0.617-0.501 1.118-1.118 1.118-0.182 0-0.354-0.044-0.506-0.121l0.006 0.003c-0.287 0.168-0.632 0.268-1 0.268s-0.713-0.099-1.009-0.273l0.009 0.005-2-2c-2.232 1.571-5.006 2.511-8 2.511s-5.768-0.94-8.045-2.541l0.045 0.030-2 2c-0.142 0.978-0.974 1.721-1.98 1.721-1.105 0-2-0.895-2-2 0-0.728 0.389-1.366 0.971-1.716l0.009-0.005 2-2c-1.825-2.341-2.926-5.325-2.926-8.566 0-7.732 6.268-14 14-14 7.227 0 13.175 5.476 13.921 12.505l0.005 0.061zM16 5.5c-6.609 0.024-11.958 5.387-11.958 12 0 6.627 5.373 12 12 12s12-5.373 12-12c0-0.352-0.015-0.7-0.045-1.045l0.003 0.045c-0.532-6.183-5.683-11-11.958-11-0.015 0-0.029 0-0.044 0h0.002zM22 18.5h-6c-0.611-0.35-1.017-0.998-1.017-1.742 0-0.091 0.006-0.181 0.018-0.269l-0.001 0.010v-8c0.368-0.416 0.904-0.677 1.5-0.677s1.132 0.261 1.498 0.675l0.002 0.002v7h4c0.416 0.368 0.677 0.904 0.677 1.5s-0.261 1.132-0.675 1.498l-0.002 0.002zM1 10.5c-0.962-1.060-1.551-2.474-1.551-4.025 0-3.314 2.686-6 6-6 0.194 0 0.386 0.009 0.575 0.027l-0.024-0.002c0.19-0.021 0.41-0.034 0.633-0.034 1.257 0 2.423 0.386 3.387 1.047l-0.021-0.013c-4.128 1.662-7.338 4.872-8.962 8.893l-0.038 0.107z"></path>
    </symbol>

    <symbol id="icon-seo_4" viewBox="0 0 32 32">
       <path fill="#95e1d3" style="fill: var(--color1, #95e1d3)" d="M31 26l-14 6c-0.287 0.168-0.632 0.268-1 0.268s-0.713-0.099-1.009-0.273l0.009 0.005-14-6c-0.446-0.205-0.795-0.554-0.995-0.988l-0.005-0.012v-23c-0.011-0.078-0.017-0.167-0.017-0.258 0-0.743 0.405-1.392 1.007-1.736l0.010-0.005c0.15-0.040 0.322-0.064 0.5-0.064s0.35 0.023 0.514 0.067l-0.014-0.003 14 6 14-6c1.105 0 2 0.895 2 2v0 23c-0.205 0.446-0.554 0.795-0.988 0.995l-0.012 0.005zM15 9l-12-5v20l12 4v-19zM29 4l-11 5v19l11-4v-20zM20 11l5-3c0.15-0.040 0.322-0.064 0.5-0.064s0.35 0.023 0.514 0.067l-0.014-0.003c0.786 0.281 1.338 1.020 1.338 1.887 0 0.415-0.126 0.8-0.343 1.12l0.005-0.007-6 2c-0.15 0.040-0.322 0.063-0.5 0.063s-0.35-0.023-0.514-0.067l0.014 0.003c-0.168-0.287-0.268-0.632-0.268-1s0.099-0.713 0.273-1.009l-0.005 0.009zM20 16l5-2c0.205-0.446 0.554-0.795 0.988-0.995l0.012-0.005c0.786 0.281 1.338 1.020 1.338 1.887 0 0.415-0.126 0.8-0.343 1.12l0.005-0.007-6 3c-0.143 0.084-0.316 0.134-0.5 0.134s-0.357-0.050-0.505-0.137l0.005 0.003c-0.416-0.368-0.677-0.904-0.677-1.5s0.261-1.132 0.675-1.498l0.002-0.002zM20 22l5-3c0.15-0.040 0.322-0.064 0.5-0.064s0.35 0.023 0.514 0.067l-0.014-0.003c0.786 0.282 1.338 1.020 1.338 1.887 0 0.415-0.126 0.8-0.343 1.12l0.005-0.007-6 2c-0.15 0.040-0.322 0.064-0.5 0.064s-0.35-0.023-0.514-0.067l0.014 0.003c-0.168-0.287-0.268-0.632-0.268-1s0.099-0.713 0.273-1.009l-0.005 0.009zM6 8c0.15-0.040 0.322-0.064 0.5-0.064s0.35 0.023 0.514 0.067l-0.014-0.003 5 3c0.011 0.078 0.017 0.167 0.017 0.258 0 0.743-0.405 1.392-1.007 1.736l-0.010 0.005-6-2c-0.212-0.312-0.338-0.698-0.338-1.113 0-0.867 0.552-1.606 1.324-1.883l0.014-0.004zM6 13c0.446 0.205 0.795 0.554 0.995 0.988l0.005 0.012 5 2c0.212 0.312 0.338 0.698 0.338 1.113 0 0.867-0.552 1.606-1.324 1.883l-0.014 0.004-6-3c-0.011-0.078-0.017-0.167-0.017-0.258 0-0.743 0.405-1.392 1.007-1.736l0.010-0.005zM6 19c0.15-0.040 0.322-0.064 0.5-0.064s0.35 0.023 0.514 0.067l-0.014-0.003 5 3c0.011 0.078 0.017 0.167 0.017 0.258 0 0.743-0.405 1.392-1.007 1.736l-0.010 0.005-6-2c-0.212-0.312-0.338-0.698-0.338-1.113 0-0.867 0.552-1.606 1.324-1.883l0.014-0.004z"></path>
    </symbol>

    <symbol id="icon-web_design_2" viewBox="0 0 32 32">
      <path fill="#95e1d3" style="fill: var(--color1, #95e1d3)" d="M31 32h-29c-0.078 0.011-0.167 0.017-0.258 0.017-0.743 0-1.392-0.405-1.736-1.007l-0.005-0.010v-29c0-1.105 0.895-2 2-2v0h29c0.611 0.35 1.017 0.998 1.017 1.742 0 0.091-0.006 0.181-0.018 0.269l0.001-0.010v29c-0.205 0.446-0.554 0.795-0.988 0.995l-0.012 0.005zM29 3h-26v26h26v-26zM5 16l4-2c0.287-0.168 0.632-0.268 1-0.268s0.713 0.1 1.009 0.273l-0.009-0.005 6 4 8-5c0-1.105 0.895-2 2-2s2 0.895 2 2c0 1.105-0.895 2-2 2v0l-9 6c0.084 0.143 0.134 0.316 0.134 0.5s-0.050 0.357-0.137 0.505l0.003-0.005c-0.446-0.205-0.795-0.554-0.995-0.988l-0.005-0.012-7-4-3 2c-0.143 0.084-0.316 0.134-0.5 0.134s-0.357-0.050-0.505-0.137l0.005 0.003c-0.786-0.282-1.338-1.020-1.338-1.887 0-0.415 0.126-0.8 0.343-1.12l-0.005 0.007z"></path>
    </symbol>
</defs>
</svg>